<svg width="512" height="496" viewBox="0 0 512 496" fill="none" xmlns="http://www.w3.org/2000/svg">
    <g filter="url(#filter0_d_12_64)">
        <path
            d="M390.026 20.0076C390.09 20.016 396.502 20.8808 404.312 23.9249C411.422 26.6957 421.195 31.8986 427.382 40.9489C427.751 41.488 428.352 41.7941 428.977 41.7941C429.166 41.7941 429.357 41.7661 429.544 41.7079C430.352 41.4577 430.906 40.7078 430.914 39.8544C430.915 39.7723 431.026 31.5663 434.044 23.0233C437.98 11.8842 444.769 5.56174 454.223 4.23164C455.283 4.08261 456.022 3.09325 455.874 2.02204C455.727 0.950638 454.748 0.202749 453.688 0.352366C442.846 1.87771 434.791 9.26182 430.395 21.7061C428.671 26.5849 427.832 31.3035 427.424 34.7022C422.085 28.6891 414.641 23.738 405.61 20.2328C397.382 17.0392 390.797 16.1587 390.521 16.1229C389.462 15.9852 388.49 16.7421 388.353 17.8143C388.216 18.8869 388.966 19.8684 390.026 20.0076Z"
            fill="#F5F0DA" />
    </g>
    <g filter="url(#filter1_d_12_64)">
        <path
            d="M441.689 135.674C441.753 135.683 448.165 136.548 455.975 139.592C463.084 142.362 472.858 147.565 479.045 156.616C479.414 157.155 480.015 157.461 480.639 157.461C480.829 157.461 481.02 157.433 481.207 157.375C482.015 157.124 482.569 156.375 482.577 155.521C482.577 155.439 482.689 147.233 485.707 138.69C489.642 127.551 496.431 121.228 505.886 119.898C506.945 119.749 507.685 118.76 507.537 117.689C507.39 116.617 506.411 115.869 505.351 116.019C494.509 117.544 486.454 124.929 482.057 137.373C480.334 142.252 479.495 146.97 479.087 150.369C473.748 144.356 466.303 139.405 457.273 135.9C449.045 132.706 442.46 131.825 442.184 131.79C441.125 131.652 440.153 132.409 440.016 133.481C439.879 134.554 440.628 135.535 441.689 135.674Z"
            fill="#F5F0DA" />
    </g>
    <g filter="url(#filter2_d_12_64)">
        <path
            d="M111.031 42.6993C111.092 42.7174 117.295 44.5614 124.541 48.7741C131.138 52.6089 139.992 59.2577 144.708 69.1542C144.989 69.7438 145.535 70.1389 146.153 70.2353C146.34 70.2645 146.533 70.2664 146.727 70.2378C147.563 70.1151 148.226 69.4598 148.366 68.6178C148.38 68.5368 149.756 60.4463 154.056 52.4713C159.663 42.073 167.347 36.8739 176.893 37.0186C177.963 37.0349 178.846 36.1715 178.866 35.0903C178.885 34.009 178.034 33.119 176.964 33.1033C166.016 32.9373 156.918 38.99 150.654 50.6067C148.198 55.1611 146.641 59.6938 145.714 62.9889C141.366 56.2239 134.775 50.1833 126.393 45.3265C118.756 40.9015 112.387 39.0155 112.119 38.9374C111.094 38.638 110.017 39.2359 109.716 40.2741C109.416 41.3127 110.004 42.398 111.031 42.6993Z"
            fill="#F5F0DA" />
    </g>
    <g filter="url(#filter3_d_12_64)">
        <path
            d="M82.3158 102.615C73.4247 99.4516 65.647 99.813 59.1988 103.689C48.814 109.933 45.0958 123.384 44.0433 128.377C33.4079 127.041 24.8049 129.028 18.454 134.291C8.29823 142.707 7.7574 156.327 7.73933 156.903C7.70561 157.979 8.54662 158.886 9.61897 158.932C10.6913 158.979 11.5898 158.144 11.6268 157.069C11.6311 156.945 12.1573 144.572 20.9759 137.288C26.8047 132.475 35.0006 130.861 45.3352 132.495C45.8457 132.576 46.3648 132.451 46.7788 132.146C46.7795 132.146 46.7799 132.145 46.7805 132.145C47.1947 131.84 47.4693 131.381 47.5436 130.869C47.5684 130.698 50.1503 113.7 61.2231 107.042C66.6349 103.789 73.3054 103.536 81.0489 106.291C81.6797 106.516 82.3458 106.396 82.8438 106.03C83.1474 105.807 83.3887 105.492 83.5213 105.108C83.8711 104.093 83.3315 102.977 82.3158 102.615Z"
            fill="#F5F0DA" />
    </g>
    <g filter="url(#filter4_d_12_64)">
        <path
            d="M390.459 63.7679C383.822 57.0581 376.659 54.0073 369.167 54.7002C357.101 55.8167 347.913 66.3203 344.797 70.3608C335.796 64.5404 327.183 62.5959 319.178 64.5797C306.375 67.7525 299.975 79.7881 299.709 80.2989C299.211 81.2532 299.575 82.4353 300.521 82.9428C301.467 83.4503 302.639 83.0881 303.139 82.1358C303.197 82.026 309.042 71.108 320.148 68.3743C327.489 66.569 335.573 68.6731 344.173 74.6319C344.598 74.9263 345.12 75.0384 345.625 74.944C345.626 74.9438 345.626 74.9437 345.627 74.9436C346.133 74.8485 346.58 74.554 346.869 74.1249C346.965 73.9818 356.67 59.7903 369.535 58.5991C375.823 58.0176 381.942 60.6858 387.721 66.5295C388.192 67.0057 388.844 67.1872 389.452 67.0736C389.822 67.0044 390.176 66.8254 390.463 66.5366C391.218 65.7739 391.217 64.5344 390.459 63.7679Z"
            fill="#F5F0DA" />
    </g>
    <g filter="url(#filter5_d_12_64)">
        <path
            d="M297.6 36.0254C293.865 27.3589 288.305 21.9077 281.076 19.8233C269.433 16.4668 257.048 22.9003 252.675 25.528C246.413 16.8281 239.101 11.8791 230.923 10.8096C217.844 9.09967 207.499 17.976 207.065 18.3547C206.254 19.0621 206.162 20.2956 206.858 21.1128C207.554 21.93 208.777 22.0198 209.59 21.3151C209.684 21.2338 219.105 13.1961 230.444 14.6971C237.938 15.6904 244.699 20.5953 250.538 29.2781C250.826 29.707 251.271 30.0017 251.776 30.0978C251.777 30.0979 251.777 30.0981 251.778 30.0982C252.284 30.1938 252.807 30.0823 253.233 29.7882C253.375 29.69 267.583 20.0101 279.998 23.5884C286.066 25.3378 290.792 30.052 294.045 37.5999C294.31 38.2149 294.851 38.6214 295.458 38.737C295.828 38.8075 296.223 38.7698 296.595 38.6052C297.577 38.1703 298.027 37.0154 297.6 36.0254Z"
            fill="#F5F0DA" />
    </g>
    <path
        d="M263.038 116C326.871 116 362.15 142.794 362.15 142.794C362.15 142.794 338.428 152.769 301.661 142.794C301.661 142.794 273.3 144.136 253.341 152.366C233.384 160.596 222.795 138.993 222.795 138.993C222.795 138.993 205.319 150.755 175.234 136.644C175.234 136.644 214.96 116 263.038 116Z"
        fill="white" fill-opacity="0.1" />
    <path
        d="M456.075 306.278C456.075 410.69 369.65 495.331 263.037 495.331C156.427 495.331 70 410.691 70 306.278C70 201.867 156.425 117.224 263.037 117.224C369.65 117.224 456.075 201.867 456.075 306.278Z"
        fill="#005555" />
    <path
        d="M321.787 487.63C321.787 487.63 261.032 506.58 199.411 486.038C199.411 486.038 234.841 480.927 251.442 471.669C268.044 462.411 321.787 487.63 321.787 487.63Z"
        fill="white" fill-opacity="0.1" />
    <path
        d="M372.975 412.722C372.975 412.722 371.826 380.089 371.251 364.9C370.676 349.708 376.421 339.581 368.953 325.516C361.485 311.45 367.229 300.197 360.336 299.635C353.443 299.073 331.613 295.134 319.549 299.635C307.484 304.136 281.058 284.444 280.484 271.504C279.91 258.564 275.889 249 275.889 249C275.889 249 290.825 225.419 294.846 226.238C298.868 227.057 299.443 211.304 302.315 210.179C305.188 209.053 335.634 201.176 344.251 201.176C352.868 201.176 346.549 210.179 346.549 210.179L372.975 219.74L377.571 209.612L400.55 216.364C400.55 216.364 399.976 202.861 394.805 201.173C389.634 199.486 367.804 189.358 367.804 189.358C367.804 189.358 372.401 197.797 370.103 200.048C367.804 202.299 360.336 189.358 360.336 189.358L343.678 183.169C343.678 183.169 332.188 184.858 325.868 187.108C319.549 189.358 316.676 200.048 316.676 200.048C316.676 200.048 305.188 205.674 297.719 203.986C290.25 202.299 292.548 188.233 292.548 188.233C292.548 188.233 306.335 187.108 307.484 183.169C308.633 179.231 297.719 171.917 297.719 171.917L306.335 167.978L314.378 154.228L327.016 155.602L331.038 140.973L330.029 126.52C330.029 126.52 414.145 165.251 440.666 229.346L426.975 220.865L432.72 233.243L435.018 231.555L441.911 243.931V254.059L438.465 269.619C438.465 269.619 416.571 233.449 406.294 224.24C406.294 224.24 421.24 257.996 439.04 275.439L444.784 269.619V288.378V296.818L439.614 308.634L433.295 327.2L432.145 341.828V359.269L423.528 367.708L414.911 373.897V381.212L406.294 392.478L394.23 404.855L382.166 412.733H372.975V412.722Z"
        fill="#A1E3D8" />
    <path
        d="M206.85 476.772L195.361 462.144L197.085 454.266H204.553L202.96 446.2L205.128 435.7L206.85 427.825L213.349 421.205C213.349 421.205 228.108 415.446 226.384 395.191C226.384 395.191 239.02 378.312 236.149 369.312C233.276 360.31 215.968 360.872 215.968 360.872L187.319 349.057C187.319 349.057 185.021 337.241 176.979 336.116C168.935 334.992 166.638 340.617 163.19 336.116C159.743 331.616 154.97 324.861 145.868 324.3C136.765 323.739 125.275 316.426 125.275 316.426C125.275 316.426 123.551 310.238 113.786 312.488C113.786 312.488 107.466 306.298 110.339 293.92C110.339 293.92 109.765 287.169 101.146 289.982C101.146 289.982 94.2538 282.668 91.955 282.668C89.6575 282.668 86.21 261.288 96.5525 251.723C96.5525 251.723 106.318 240.472 117.234 247.223C117.234 247.223 116.658 257.913 118.381 262.976C120.105 268.04 123.551 255.662 123.551 255.662L124.126 239.909C124.126 239.909 131.595 236.532 137.915 230.907C144.233 225.281 141.935 217.966 150.553 212.341C159.169 206.714 160.893 212.341 160.893 212.341L161.466 202.776H169.51L189.043 194.337C189.043 194.337 179.85 194.9 176.404 189.835L201.105 176.895V169.582L199.411 154.391L193.638 161.142L192.49 154.391L181.574 153.019H177.554L168.361 157.204L167.786 162.831L157.446 167.331L152.275 162.267L156.298 157.204L160.318 153.019L171.025 138.822C171.025 138.822 100.014 177.829 79.325 246.846C79.325 246.846 78.1688 268.603 77.595 276.479C77.02 284.356 83.9125 291.669 83.9125 291.669H90.2325L92.53 297.296L97.7 298.984L100.574 300.672L102.296 305.058L104.594 313.05L109.765 314.176L112.636 319.238L116.084 319.801L114.935 315.301H119.531L121.254 319.238L116.084 323.176L114.36 327.116L113.786 336.116L114.36 342.869L114.935 349.057L109.765 351.87L110.913 358.059L111.489 361.997V368.186L108.615 369.312L129.296 396.879L135.616 399.131L139.636 399.692L145.956 401.944L151.128 411.507C151.128 411.507 167.786 447.517 170.085 452.579C172.383 457.639 196.511 478.456 206.85 476.768"
        fill="#A1E3D8" />
    <defs>
        <filter id="filter0_d_12_64" x="384.337" y="0.333313" width="75.5562" height="49.4608"
            filterUnits="userSpaceOnUse" color-interpolation-filters="sRGB">
            <feFlood flood-opacity="0" result="BackgroundImageFix" />
            <feColorMatrix in="SourceAlpha" type="matrix" values="0 0 0 0 0 0 0 0 0 0 0 0 0 0 0 0 0 0 127 0"
                result="hardAlpha" />
            <feOffset dy="4" />
            <feGaussianBlur stdDeviation="2" />
            <feComposite in2="hardAlpha" operator="out" />
            <feColorMatrix type="matrix" values="0 0 0 0 0 0 0 0 0 0 0 0 0 0 0 0 0 0 0.25 0" />
            <feBlend mode="normal" in2="BackgroundImageFix" result="effect1_dropShadow_12_64" />
            <feBlend mode="normal" in="SourceGraphic" in2="effect1_dropShadow_12_64" result="shape" />
        </filter>
        <filter id="filter1_d_12_64" x="436" y="116" width="75.5562" height="49.4608" filterUnits="userSpaceOnUse"
            color-interpolation-filters="sRGB">
            <feFlood flood-opacity="0" result="BackgroundImageFix" />
            <feColorMatrix in="SourceAlpha" type="matrix" values="0 0 0 0 0 0 0 0 0 0 0 0 0 0 0 0 0 0 127 0"
                result="hardAlpha" />
            <feOffset dy="4" />
            <feGaussianBlur stdDeviation="2" />
            <feComposite in2="hardAlpha" operator="out" />
            <feColorMatrix type="matrix" values="0 0 0 0 0 0 0 0 0 0 0 0 0 0 0 0 0 0 0.25 0" />
            <feBlend mode="normal" in2="BackgroundImageFix" result="effect1_dropShadow_12_64" />
            <feBlend mode="normal" in="SourceGraphic" in2="effect1_dropShadow_12_64" result="shape" />
        </filter>
        <filter id="filter2_d_12_64" x="105.638" y="33.1" width="77.2284" height="45.1583" filterUnits="userSpaceOnUse"
            color-interpolation-filters="sRGB">
            <feFlood flood-opacity="0" result="BackgroundImageFix" />
            <feColorMatrix in="SourceAlpha" type="matrix" values="0 0 0 0 0 0 0 0 0 0 0 0 0 0 0 0 0 0 127 0"
                result="hardAlpha" />
            <feOffset dy="4" />
            <feGaussianBlur stdDeviation="2" />
            <feComposite in2="hardAlpha" operator="out" />
            <feColorMatrix type="matrix" values="0 0 0 0 0 0 0 0 0 0 0 0 0 0 0 0 0 0 0.25 0" />
            <feBlend mode="normal" in2="BackgroundImageFix" result="effect1_dropShadow_12_64" />
            <feBlend mode="normal" in="SourceGraphic" in2="effect1_dropShadow_12_64" result="shape" />
        </filter>
        <filter id="filter3_d_12_64" x="3.73836" y="100.485" width="83.8895" height="66.4492"
            filterUnits="userSpaceOnUse" color-interpolation-filters="sRGB">
            <feFlood flood-opacity="0" result="BackgroundImageFix" />
            <feColorMatrix in="SourceAlpha" type="matrix" values="0 0 0 0 0 0 0 0 0 0 0 0 0 0 0 0 0 0 127 0"
                result="hardAlpha" />
            <feOffset dy="4" />
            <feGaussianBlur stdDeviation="2" />
            <feComposite in2="hardAlpha" operator="out" />
            <feColorMatrix type="matrix" values="0 0 0 0 0 0 0 0 0 0 0 0 0 0 0 0 0 0 0.25 0" />
            <feBlend mode="normal" in2="BackgroundImageFix" result="effect1_dropShadow_12_64" />
            <feBlend mode="normal" in="SourceGraphic" in2="effect1_dropShadow_12_64" result="shape" />
        </filter>
        <filter id="filter4_d_12_64" x="295.486" y="54.6039" width="99.5422" height="36.5685"
            filterUnits="userSpaceOnUse" color-interpolation-filters="sRGB">
            <feFlood flood-opacity="0" result="BackgroundImageFix" />
            <feColorMatrix in="SourceAlpha" type="matrix" values="0 0 0 0 0 0 0 0 0 0 0 0 0 0 0 0 0 0 127 0"
                result="hardAlpha" />
            <feOffset dy="4" />
            <feGaussianBlur stdDeviation="2" />
            <feComposite in2="hardAlpha" operator="out" />
            <feColorMatrix type="matrix" values="0 0 0 0 0 0 0 0 0 0 0 0 0 0 0 0 0 0 0.25 0" />
            <feBlend mode="normal" in2="BackgroundImageFix" result="effect1_dropShadow_12_64" />
            <feBlend mode="normal" in="SourceGraphic" in2="effect1_dropShadow_12_64" result="shape" />
        </filter>
        <filter id="filter5_d_12_64" x="202.391" y="10.5911" width="99.3699" height="36.1797"
            filterUnits="userSpaceOnUse" color-interpolation-filters="sRGB">
            <feFlood flood-opacity="0" result="BackgroundImageFix" />
            <feColorMatrix in="SourceAlpha" type="matrix" values="0 0 0 0 0 0 0 0 0 0 0 0 0 0 0 0 0 0 127 0"
                result="hardAlpha" />
            <feOffset dy="4" />
            <feGaussianBlur stdDeviation="2" />
            <feComposite in2="hardAlpha" operator="out" />
            <feColorMatrix type="matrix" values="0 0 0 0 0 0 0 0 0 0 0 0 0 0 0 0 0 0 0.25 0" />
            <feBlend mode="normal" in2="BackgroundImageFix" result="effect1_dropShadow_12_64" />
            <feBlend mode="normal" in="SourceGraphic" in2="effect1_dropShadow_12_64" result="shape" />
        </filter>
    </defs>
</svg>