<?xml version="1.0" standalone="no"?>
<!DOCTYPE svg PUBLIC "-//W3C//DTD SVG 20010904//EN"
 "http://www.w3.org/TR/2001/REC-SVG-20010904/DTD/svg10.dtd">
<svg version="1.0" xmlns="http://www.w3.org/2000/svg"
 width="612.000000pt" height="612.000000pt" viewBox="0 0 612.000000 612.000000"
 preserveAspectRatio="xMidYMid meet">
<metadata>
Created by potrace 1.16, written by Peter Selinger 2001-2019
</metadata>
<g transform="translate(0.000000,612.000000) scale(0.100000,-0.100000)"
fill="#ffff" stroke="none">
<path d="M2485 4908 c-3 -7 -6 -112 -7 -233 l-3 -220 -172 -3 -173 -2 0 -115
0 -115 -115 0 -115 0 0 -115 0 -115 -115 0 -115 0 0 -405 0 -405 -235 0 -235
0 0 634 0 633 -68 6 c-37 4 -88 7 -114 7 l-48 0 0 -640 0 -640 115 0 114 0 3
-117 3 -118 233 -3 232 -2 0 -405 0 -405 230 0 230 0 0 -290 0 -290 -230 0
-230 0 0 -230 0 -230 230 0 230 0 0 230 0 230 290 0 290 0 0 290 0 290 350 0
350 0 0 -290 0 -290 290 0 290 0 0 -230 0 -230 230 0 230 0 0 230 0 230 -230
0 -230 0 0 290 0 290 230 0 230 0 0 405 0 405 233 2 232 3 3 118 3 117 114 0
115 0 0 641 0 642 -52 -7 c-29 -3 -81 -6 -115 -6 l-63 0 0 -635 0 -635 -235 0
-235 0 0 405 0 405 -115 0 -115 0 0 115 0 115 -115 0 -115 0 0 115 0 115 -172
2 -173 3 -5 230 -5 230 -112 3 -113 3 -2 -233 -3 -233 -345 0 -345 0 -3 233
-2 232 -110 0 c-79 0 -112 -4 -115 -12z m345 -1733 l0 -465 -232 2 -233 3 -3
463 -2 462 235 0 235 0 0 -465z m928 3 l-3 -463 -232 -3 -233 -2 0 465 0 465
235 0 235 0 -2 -462z"/>
</g>
</svg>
